<svg width="23" height="17" viewBox="0 0 23 17" fill="none" xmlns="http://www.w3.org/2000/svg">
<path fill-rule="evenodd" clip-rule="evenodd" d="M3.07031 16.526C5.86831 16.526 7.98431 12.882 9.88131 8.904C10.7943 6.975 11.6463 4.954 12.4973 3.241C13.4323 1.341 14.3913 0 15.5643 0C16.5593 0 17.4953 0.803 18.4273 2.062C20.3573 4.675 22.0273 9.1 22.0273 12.002C22.0273 14.433 20.7763 16.526 18.2113 16.526H3.07031Z" fill="white"/>
<path fill-rule="evenodd" clip-rule="evenodd" d="M9.879 8.90359C7.957 5.02759 7.086 2.18359 5.386 2.18359C4.329 2.18359 3.14 3.29259 2.062 5.10759C0.908 7.03459 0 9.75359 0 12.6796C0 14.9896 1.131 16.5266 3.068 16.5266C5.866 16.5266 7.982 12.8826 9.879 8.90459" fill="#5BC4F1"/>
</svg>
