<svg width="117" height="18" viewBox="0 0 117 18" fill="none" xmlns="http://www.w3.org/2000/svg">
<g clip-path="url(#clip0_2145_8654)">
<path fill-rule="evenodd" clip-rule="evenodd" d="M112.49 13.5763V9.70828H110.736V9.85228C110.72 11.1167 110.516 12.3718 110.131 13.5763H112.49ZM115.609 13.5763H116.768L116.696 17.8743H113.824V16.0793H109.126L109.074 17.8743H106.181V13.5763H107.187C107.689 12.1303 107.935 10.7243 107.935 7.66728V7.23728H115.609V13.5763ZM57.372 6.69228C55.269 6.69228 54.273 5.80028 54.027 4.25128L56.397 3.91228C56.51 4.49728 56.797 4.86628 57.372 4.86628C57.946 4.86628 58.233 4.49728 58.346 3.91228L60.716 4.25128C60.47 5.80028 59.464 6.69228 57.372 6.69228ZM46.712 13.6373C47.842 13.6373 48.559 12.7543 48.559 11.6673C48.559 10.6023 47.769 9.69828 46.682 9.69828C45.554 9.69828 44.836 10.5823 44.836 11.6683C44.836 12.7343 45.616 13.6383 46.713 13.6383L46.712 13.6373ZM46.712 7.04128C49.534 7.04128 51.575 9.12428 51.575 11.6683C51.575 14.1813 49.524 16.2943 46.682 16.2943C43.851 16.2943 41.809 14.2123 41.809 11.6683C41.809 9.15528 43.87 7.04128 46.712 7.04128ZM100.201 13.6793C101.196 13.6793 101.996 12.8483 101.996 11.6473C101.996 10.4773 101.196 9.63728 100.201 9.63728C99.185 9.63728 98.385 10.4573 98.385 11.6783C98.385 12.8483 99.185 13.6793 100.201 13.6793ZM101.934 7.23628H105.032V16.0793H101.934V14.8993C101.329 15.6383 100.58 16.2743 99.257 16.2743C97.144 16.2743 95.327 14.5303 95.327 11.6683C95.327 8.79628 97.144 7.04128 99.237 7.04128C100.58 7.04128 101.36 7.64728 101.934 8.31328V7.23628ZM55.884 11.6883L58.838 7.23628H61.701V16.0793H58.695V13.1963C58.695 12.6423 58.695 12.1293 58.705 11.6263L55.751 16.0793H52.889V7.23628H55.894V10.0783C55.894 10.5183 55.894 11.1553 55.884 11.6883ZM86.434 8.93928L86.454 7.23628H94.066V16.0793H90.958V9.70928H89.173V9.98628C89.08 15.3303 87.89 16.1923 86.013 16.1923C85.716 16.1923 85.131 16.1403 84.741 16.0793H81.058L78.617 12.3043V16.0793H75.519V7.23628H78.617V10.6423L80.987 7.23628H84.567L81.407 11.2573L84.649 15.9773L84.792 13.2573C85.131 13.2993 85.213 13.2993 85.295 13.2993C85.849 13.2993 86.423 12.8993 86.434 8.93928ZM69.784 13.3093C70.872 13.3093 71.621 12.8373 72.246 11.9353L74.636 13.6783C73.498 15.2183 72.062 16.2943 69.558 16.2943C66.235 16.2943 63.691 13.8223 63.691 10.3343C63.691 7.08228 66.214 4.40428 69.712 4.40428C71.877 4.40428 73.457 5.34928 74.575 6.94928L72.225 8.66228C71.6 7.79028 70.851 7.38028 69.855 7.38028C68.185 7.38028 67.025 8.69328 67.025 10.3343C67.025 12.1403 68.234 13.3093 69.784 13.3093ZM36.947 4.59928H38.988L41.184 16.0793H38.075L37.07 10.4783L34.27 16.4583H33.91L31.1 10.5293L30.094 16.0793H27.007L29.202 4.59928H31.232C31.232 4.59928 32.997 8.39528 33.346 9.12428C33.695 9.85228 34.095 10.7863 34.095 10.7863C34.095 10.7863 34.608 9.58628 34.865 9.07328C35.121 8.56028 36.947 4.60028 36.947 4.60028V4.59928ZM3.125 17.0143C5.923 17.0143 8.039 13.3703 9.936 9.39228C10.849 7.46328 11.701 5.44228 12.552 3.72928C13.487 1.82928 14.446 0.488281 15.619 0.488281C16.614 0.488281 17.55 1.29128 18.482 2.55028C20.412 5.16328 22.082 9.58828 22.082 12.4903C22.082 14.9213 20.831 17.0143 18.266 17.0143H3.125Z" fill="white"/>
<path fill-rule="evenodd" clip-rule="evenodd" d="M9.93369 9.39188C8.01169 5.51588 7.14069 2.67188 5.44069 2.67188C4.38369 2.67188 3.19469 3.78087 2.11669 5.59588C0.962687 7.52288 0.0546875 10.2419 0.0546875 13.1679C0.0546875 15.4779 1.18569 17.0149 3.12269 17.0149C5.92069 17.0149 8.03669 13.3709 9.93369 9.39288" fill="#5BC4F1"/>
</g>
<defs>
<clipPath id="clip0_2145_8654">
<rect width="117" height="18" fill="white"/>
</clipPath>
</defs>
</svg>
