<svg width="17" height="17" viewBox="0 0 17 17" fill="none" xmlns="http://www.w3.org/2000/svg">
<g clip-path="url(#clip0_2146_8677)">
<mask id="mask0_2146_8677" style="mask-type:luminance" maskUnits="userSpaceOnUse" x="0" y="0" width="17" height="17">
<path d="M13.602 16.9976H3.41253C1.53614 16.9976 0.015625 15.4764 0.015625 13.6004V3.40625C0.015625 1.52902 1.53614 0.0078125 3.41253 0.0078125H13.602C15.4784 0.0078125 16.9989 1.52902 16.9989 3.40625V13.6004C16.9977 15.4764 15.4772 16.9976 13.602 16.9976Z" fill="white"/>
</mask>
<g mask="url(#mask0_2146_8677)">
<path d="M16.9977 0.0078125H0.015625V16.9976H16.9977V0.0078125Z" fill="#005BFF"/>
</g>
<mask id="mask1_2146_8677" style="mask-type:luminance" maskUnits="userSpaceOnUse" x="0" y="0" width="17" height="17">
<path d="M13.602 0.0078125H3.41253C1.53614 0.0078125 0.015625 1.52902 0.015625 3.40625V13.6004C0.015625 15.4764 1.53614 16.9976 3.41253 16.9976H13.602C15.4772 16.9976 16.9977 15.4764 16.9989 13.6004V3.40625C16.9989 1.52902 15.4784 0.0078125 13.602 0.0078125Z" fill="white"/>
</mask>
<g mask="url(#mask1_2146_8677)">
<path d="M18.8802 14.5662C17.5899 15.7274 16.1023 17.4413 14.2337 17.3739C13.7307 17.0347 14.5262 16.3736 14.7811 16.0875C15.5956 15.1734 16.3991 14.1978 17.1908 13.2033C20.0389 9.62591 19.1065 11.62 18.8802 14.5662Z" fill="#F1117E"/>
<path d="M15.5696 -3.02989C14.2985 -0.122314 12.74 2.76606 10.5409 5.08927C9.01917 6.69682 7.95974 7.89733 6.0822 9.34209C3.91032 11.0133 1.78549 12.3161 -0.271707 14.0882C-1.35881 15.0895 -2.6405 15.9176 -4.02344 16.5059C-4.01497 16.6187 -3.89874 18.2502 -3.89515 18.2718C-3.87597 18.261 -3.49135 17.9517 -3.41467 17.8954C-0.169035 15.6371 3.56279 14.1196 6.73993 11.7012C10.6493 8.4112 13.9237 4.34324 16.72 0.0797158C19.2648 -3.47496 20.9337 -3.53486 15.5696 -3.02989Z" fill="#F1117E"/>
<path d="M3.12519 0.906479C2.36672 1.70964 1.62624 2.51399 0.884549 3.33393C0.480755 3.78227 0.116502 4.26536 -0.282499 4.72088C-0.995429 5.53483 -1.73352 6.33918 -2.57586 7.00449C-3.43017 7.67818 -4.34919 8.35907 -5.22029 9.01118C-5.22268 8.96204 -5.32573 6.67723 -5.32812 6.62568C-4.95908 5.99994 -4.58764 5.29148 -4.31325 4.6118C-4.15149 4.21022 -4.00891 3.78826 -3.84595 3.38668C-3.53442 2.61349 -3.12583 1.90623 -2.52433 1.34282C-2.18884 1.02755 -1.80302 0.804585 -1.40641 0.592408C-0.216598 -0.045324 0.972018 -0.693844 2.16423 -1.32558C2.87476 -1.70319 3.41275 -2.3613 4.0466 -2.85878L6.56163 -2.97266C5.41974 -1.67202 4.315 -0.353401 3.12519 0.906479Z" fill="#F1117E"/>
<path d="M8.64374 19.1928C9.59025 18.2314 12.9063 15.9981 12.3779 15.692C12.3304 15.6645 12.2716 15.6645 12.2221 15.6885C10.4009 16.5693 8.70069 17.8208 7.42113 19.4076C7.38811 19.4485 7.33847 19.4723 7.28588 19.4718C6.98626 19.4687 6.01763 19.4578 5.39622 19.4509C5.23019 19.4491 5.16367 19.2356 5.29924 19.1397C5.40446 19.0653 5.49153 19.002 5.54065 18.9656C7.04134 17.8081 8.71299 16.9393 10.3326 15.9949C12.2744 14.8627 13.9579 13.3363 15.2755 11.5148C15.8816 10.677 16.4995 9.84958 17.2233 9.11652C17.2311 9.10863 17.2397 9.10157 17.2489 9.09534C19.2696 7.72137 19.8286 3.61242 22.616 2.16042C22.7312 2.10043 22.8685 2.18404 22.8674 2.31394C22.8582 3.37097 21.4618 4.2304 21.3702 5.31505C21.3693 5.32572 21.3676 5.33634 21.3647 5.34666C20.2811 9.28864 16.4623 11.9624 14.6501 14.0204C13.5736 15.2428 12.297 17.6749 10.8299 19.2987C10.8138 19.3165 10.8017 19.3375 10.7942 19.3604C10.7208 19.584 9.40741 19.5068 8.7602 19.4838C8.61152 19.4785 8.53934 19.2989 8.64374 19.1928Z" fill="#F1117E"/>
<path d="M-4.73438 19.9436C-1.10108 17.4354 3.24207 16.13 6.80083 13.5444C8.86225 11.77 10.4391 9.45255 12.5297 7.72737C13.1074 7.37913 12.9453 7.90757 12.7578 8.24998C10.6579 12.4635 6.46527 14.8811 2.55859 17.1923C-0.258819 18.9947 -0.819991 20.4973 -4.73438 19.9436Z" fill="#F1117E"/>
<path d="M20.2863 2.66495C23.4404 1.09823 22.6219 -0.55671 22.2135 -3.71875C20.5651 -2.54746 19.5284 -1.22302 18.2695 0.322427C14.5457 4.63381 13.2264 10.9433 8.18031 14.1701C5.58923 15.6781 3.49496 17.8228 1.28125 19.8103C1.78163 19.6342 4.58804 19.928 4.72974 19.1558C5.39148 18.0365 6.11372 17.1481 7.32998 16.6206C9.61156 15.4223 11.5802 13.7206 13.5821 12.1144C16.3289 9.39607 16.3312 4.26954 20.2863 2.66495Z" fill="#F1117E"/>
<path d="M15.1989 -3.0195C13.1942 0.613619 9.52024 4.32667 5.80504 7.10688C4.35833 8.18951 2.67869 8.91559 0.901685 9.24168C-0.454061 9.49047 -1.04508 9.88603 -2.98259 11.5144C-3.65245 12.2129 -4.01311 12.8615 -4.59184 13.9775C-4.59304 13.9391 -4.75 10.4963 -4.75 10.4963C-3.20864 8.39558 -0.851938 7.48442 0.93313 5.69424C2.40508 4.15653 3.43243 2.22819 4.79014 0.591164C5.46805 -0.2709 7.61695 -2.21537 8.02161 -2.69472C8.02642 -2.69464 10.2455 -2.79533 10.2455 -2.79533C9.2311 -1.50992 8.19792 -0.283292 6.05452 2.25442C5.79664 2.55974 3.66662 4.75384 2.88804 5.96099C2.63454 6.35402 2.46284 6.75368 2.65413 6.90279C2.85677 7.06075 3.14211 6.79807 3.60355 6.50962C6.25143 4.85446 8.1025 3.29204 10.2468 0.619977C13.7178 -3.7055 11.0573 -3.32093 15.1989 -3.0195Z" fill="#F1117E"/>
</g>
<mask id="mask2_2146_8677" style="mask-type:luminance" maskUnits="userSpaceOnUse" x="0" y="0" width="17" height="17">
<path d="M13.602 0.0078125H3.41253C1.53614 0.0078125 0.015625 1.52902 0.015625 3.40625V13.6004C0.015625 15.4764 1.53614 16.9976 3.41253 16.9976H13.602C15.4772 16.9976 16.9977 15.4764 16.9989 13.6004V3.40625C16.9989 1.52902 15.4784 0.0078125 13.602 0.0078125Z" fill="white"/>
</mask>
<g mask="url(#mask2_2146_8677)">
<path d="M7.13679 9.79701L5.63836 10.1987L6.87307 7.15178C6.90018 7.08376 6.86705 7.0067 6.79907 6.97958C6.77283 6.96912 6.74396 6.96732 6.71662 6.97443L3.94819 7.71657C3.70383 7.78207 3.55879 8.03339 3.62427 8.27786C3.68975 8.52234 3.94095 8.66744 4.18531 8.60193L5.43022 8.26821L4.18864 11.3182C4.16053 11.3851 4.19188 11.4621 4.25867 11.4902C4.28605 11.5017 4.31653 11.5036 4.34508 11.4956L7.37423 10.6835C7.61487 10.6054 7.74665 10.3469 7.66853 10.1062C7.59613 9.88294 7.36687 9.75052 7.13743 9.79941L7.13679 9.79701ZM16.0779 4.46495C15.8335 4.53046 15.6885 4.78177 15.754 5.02624L16.1516 6.51099L13.2514 5.25346C13.1853 5.22369 13.1076 5.2532 13.0779 5.31935C13.0653 5.34727 13.0629 5.37871 13.0711 5.40822L13.8885 8.46026C13.954 8.70473 14.2052 8.84979 14.4495 8.78428C14.6939 8.71878 14.8389 8.46749 14.7735 8.22302L14.3758 6.73828L17.2764 7.99701C17.3437 8.02573 17.4215 7.99439 17.4502 7.92707C17.4617 7.89988 17.4639 7.86961 17.4563 7.84106L16.6389 4.78902C16.5734 4.54455 16.3223 4.39944 16.0779 4.46495ZM10.5065 8.98345C9.49475 9.25466 8.59485 8.92398 8.467 8.44662C8.33915 7.96925 8.95322 7.23276 9.96494 6.96155C10.9766 6.69034 11.8765 7.02098 12.0044 7.49835C12.1322 7.97571 11.5206 8.7116 10.5065 8.98345ZM9.72813 6.07738C8.26321 6.47009 7.30286 7.63667 7.58324 8.68353C7.86361 9.73038 9.27834 10.2603 10.7433 9.86762C12.2082 9.47492 13.1685 8.3083 12.8881 7.26145C12.6077 6.21459 11.1931 5.68468 9.72813 6.07738ZM1.79726 11.3194C1.23871 11.4699 0.663986 11.1388 0.513584 10.58C0.363233 10.0212 0.694134 9.44618 1.2527 9.29576C1.81126 9.1453 2.38597 9.47635 2.53637 10.0352L2.53669 10.0364C2.68628 10.5949 2.35538 11.1691 1.79726 11.3194ZM1.01861 8.41215C-0.0283884 8.69209 -0.650319 9.76821 -0.370462 10.8157C-0.0906344 11.8632 0.984988 12.4854 2.03199 12.2054C3.07898 11.9254 3.70092 10.8494 3.42105 9.80185C3.42084 9.80105 3.42063 9.80025 3.42041 9.79946C3.1401 8.75284 2.06479 8.1317 1.01861 8.41215Z" fill="white"/>
</g>
</g>
<defs>
<clipPath id="clip0_2146_8677">
<rect width="17" height="17" fill="white"/>
</clipPath>
</defs>
</svg>
