<svg width="56" height="12" viewBox="0 0 56 12" fill="none" xmlns="http://www.w3.org/2000/svg">
<g clip-path="url(#clip0_2146_8706)">
<path fill-rule="evenodd" clip-rule="evenodd" d="M6.73038 0.0330105C5.47142 -0.0968126 4.20229 0.158272 3.09742 0.763203C1.99256 1.36813 1.10621 2.29322 0.5602 3.41129C0.0141899 4.52937 -0.164675 5.78555 0.0481897 7.00718C0.261055 8.22881 0.855201 9.35591 1.74896 10.2336C2.64272 11.1112 3.79222 11.6963 5.03946 11.9085C6.2867 12.1207 7.57044 11.9494 8.71425 11.4184C9.85805 10.8873 10.8058 10.0225 11.4271 8.94279C12.0485 7.86307 12.313 6.62145 12.1843 5.3886C12.0426 4.0182 11.4229 2.73744 10.4296 1.76197C9.43618 0.786506 8.1298 0.175914 6.73038 0.0330105ZM6.53182 9.17296C5.85472 9.26188 5.16617 9.14087 4.56294 8.82692C3.95972 8.51298 3.47215 8.02188 3.16876 7.42266C2.86537 6.82344 2.76141 6.14621 2.87149 5.48616C2.98157 4.82611 3.30016 4.21642 3.78248 3.74278C4.2648 3.26913 4.8866 2.95535 5.5605 2.84552C6.23439 2.73569 6.92651 2.83534 7.53956 3.13047C8.15262 3.4256 8.6558 3.90136 8.97838 4.4909C9.30097 5.08044 9.42674 5.75411 9.33802 6.41723C9.24492 7.11473 8.91953 7.76273 8.41223 8.2609C7.90494 8.75908 7.24402 9.07964 6.53182 9.17296ZM15.4616 0.270319C15.2491 0.270817 15.0394 0.317691 14.8477 0.40753C14.656 0.497369 14.4872 0.627913 14.3535 0.789663C14.2198 0.951413 14.1247 1.1403 14.075 1.34258C14.0253 1.54486 14.0223 1.75544 14.0662 1.959C14.2006 2.61848 14.8298 3.06909 15.5153 3.06909H19.4932L13.3027 11.0889C13.2569 11.1481 13.2289 11.2186 13.2217 11.2925C13.2146 11.3665 13.2286 11.4409 13.2623 11.5074C13.2959 11.574 13.3478 11.63 13.4122 11.6693C13.4766 11.7086 13.5508 11.7296 13.6267 11.7299H23.3371C24.0221 11.7299 24.6518 11.2794 24.7862 10.6198C24.8301 10.4163 24.8271 10.2057 24.7775 10.0035C24.7278 9.80121 24.6327 9.61233 24.4991 9.45057C24.3655 9.28881 24.1968 9.15823 24.0051 9.06834C23.8135 8.97844 23.6038 8.93149 23.3913 8.93089H18.5446L24.7303 0.917339C24.7766 0.857558 24.8049 0.786348 24.8121 0.7117C24.8193 0.637051 24.8051 0.561916 24.7711 0.494725C24.7371 0.427534 24.6846 0.370945 24.6196 0.331306C24.5546 0.291668 24.4796 0.270549 24.403 0.270319H15.4616ZM54.2637 0.302602C53.9422 0.377437 53.6564 0.557436 53.4536 0.812838C53.2508 1.06824 53.1431 1.38375 53.1483 1.7072V6.36705L45.4352 0.358333C45.3747 0.31133 45.3019 0.281998 45.2252 0.27371C45.1484 0.265423 45.0708 0.278517 45.0013 0.311486C44.9318 0.344455 44.8732 0.39596 44.8323 0.460076C44.7914 0.524192 44.7698 0.598313 44.77 0.673914V10.2955C44.7648 10.619 44.8725 10.9345 45.0753 11.1899C45.2781 11.4453 45.5638 11.6253 45.8853 11.7001C46.0941 11.7451 46.3105 11.7436 46.5186 11.6957C46.7267 11.6479 46.9212 11.555 47.0877 11.4237C47.2542 11.2925 47.3885 11.1264 47.4806 10.9376C47.5728 10.7488 47.6205 10.5421 47.6202 10.3329V5.6327L55.3334 11.6415C55.3939 11.6885 55.4667 11.7178 55.5434 11.7261C55.6201 11.7344 55.6977 11.7213 55.7671 11.6883C55.8366 11.6554 55.8952 11.6039 55.9361 11.5398C55.977 11.4757 55.9986 11.4016 55.9984 11.3261V1.66936C55.9986 1.46016 55.9509 1.25358 55.8587 1.06484C55.7665 0.876105 55.6322 0.710032 55.4657 0.578864C55.2992 0.447697 55.1048 0.354782 54.8968 0.306968C54.6887 0.259155 54.4724 0.257663 54.2637 0.302602ZM34.1808 2.8012C37.4433 2.8012 39.8809 4.48898 39.8809 5.99869C39.8809 7.5084 37.4433 9.19618 34.1808 9.19618C30.9184 9.19618 28.4807 7.5084 28.4807 5.99869C28.4807 4.48898 30.9184 2.8012 34.1808 2.8012ZM34.1808 0.00253988C29.4586 0.00253988 25.6306 2.68713 25.6306 5.99869C25.6306 9.31025 29.4586 11.9948 34.1808 11.9948C38.9031 11.9948 42.731 9.31025 42.731 5.99869C42.731 2.68713 38.9029 0.00253988 34.1808 0.00253988Z" fill="#0069FF"/>
</g>
<defs>
<clipPath id="clip0_2146_8706">
<rect width="56" height="12" fill="white"/>
</clipPath>
</defs>
</svg>
