<svg width="17" height="17" viewBox="0 0 17 17" fill="none" xmlns="http://www.w3.org/2000/svg">
<g clip-path="url(#clip0_2145_8670)">
<path d="M0 7.9815C0 5.1867 0 3.791 0.544 2.7234C1.0217 1.785 1.785 1.0217 2.7234 0.544C3.791 0 5.1867 0 7.9815 0H9.0202C11.8133 0 13.209 0 14.2766 0.544C15.215 1.0217 15.9783 1.785 16.456 2.7234C17 3.791 17 5.1867 17 7.9815V9.0202C17 11.8133 17 13.2107 16.456 14.2783C15.9783 15.215 15.215 15.9783 14.2766 16.456C13.209 17 11.8133 17 9.0185 17H7.9798C5.1867 17 3.7893 17 2.7217 16.456C1.785 15.9783 1.0217 15.215 0.544 14.2766C0 13.209 0 11.8133 0 9.0185V7.9815Z" fill="url(#paint0_linear_2145_8670)"/>
<path d="M12.9403 5.99939C12.3317 5.99939 11.7809 6.18299 11.3117 6.49919V3.62109H10.0129V8.92509C10.0129 10.5384 11.3253 11.8372 12.9318 11.8372C14.5383 11.8372 15.866 10.5469 15.866 8.90979C15.8677 7.27439 14.5689 5.99939 12.9403 5.99939ZM7.04642 9.30079L5.85812 6.20509H4.94862L3.75353 9.30079L2.55672 6.20509H1.14062L3.23162 11.6485H4.14112L5.39573 8.40659L6.65712 11.6485H7.56662L9.65082 6.20509H8.24152L7.04642 9.30079ZM12.9335 10.5401C12.0529 10.5401 11.3117 9.83629 11.3117 8.91829C11.3117 8.00029 12.0087 7.30499 12.9403 7.30499C13.8719 7.30499 14.5689 8.03089 14.5689 8.91829C14.5689 9.80739 13.8277 10.5401 12.9335 10.5401Z" fill="white"/>
</g>
<defs>
<linearGradient id="paint0_linear_2145_8670" x1="3.36589" y1="17.0568" x2="13.7977" y2="-0.329561" gradientUnits="userSpaceOnUse">
<stop stop-color="#6F01FB"/>
<stop offset="1" stop-color="#FF49D7"/>
</linearGradient>
<clipPath id="clip0_2145_8670">
<rect width="17" height="17" fill="white"/>
</clipPath>
</defs>
</svg>
