<svg width="117" height="19" viewBox="0 0 117 19" fill="none" xmlns="http://www.w3.org/2000/svg">
<path d="M108.905 9.34952C108.905 8.60469 109.903 8.00386 111.209 8.00386C112.572 8.00386 113.963 8.66262 114.904 9.73628L116.604 7.61766C114.988 6.15669 113.344 5.39807 111.294 5.39807C108.736 5.39807 106.096 6.60083 106.096 9.34952C106.096 12.7288 108.961 12.9721 111.294 13.173C112.6 13.2723 113.752 13.3732 113.752 14.2466C113.752 15.1912 112.432 15.6204 111.265 15.6204C109.917 15.6204 108.456 15.0339 107.388 13.7308L105.576 15.6927C107.023 17.4968 109.116 18.2841 111.167 18.2841C113.738 18.2841 116.562 17.0383 116.562 14.1892C116.562 10.9672 113.668 10.6527 111.448 10.4237C110.057 10.2803 108.905 10.1517 108.905 9.34952ZM95.9806 10.1517C96.4443 8.96331 97.4415 8.27586 98.9165 8.27586C100.406 8.27586 101.291 9.00579 101.67 10.1517H95.9806ZM99.0573 5.39807C95.5451 5.39807 92.7209 8.18979 92.7209 11.8554C92.7209 15.3059 95.2218 18.2841 98.9024 18.2841C101.122 18.2841 102.92 17.1956 104.199 15.3346L102.26 13.6596C101.572 14.7332 100.336 15.3633 98.8601 15.3633C97.357 15.3633 95.7975 14.2179 95.6713 12.528H104.845V11.5261C104.817 7.98952 102.457 5.39807 99.0573 5.39807ZM63.1204 5.39807C59.6083 5.39807 56.7845 8.18979 56.7845 11.8554C56.7845 15.3059 59.2854 18.2841 62.966 18.2841C65.1858 18.2841 66.9841 17.1956 68.2625 15.3346L66.3238 13.6596C65.6354 14.7332 64.3993 15.3633 62.9238 15.3633C61.4207 15.3633 59.8612 14.2179 59.735 12.528H68.9087V11.5261C68.8946 7.98952 66.5205 5.39807 63.1204 5.39807ZM88.4785 17.84H91.2882V5.84166H88.4785V17.8406V17.84ZM89.8831 0C88.7456 0 87.776 0.973793 87.776 2.19034C87.776 3.3931 88.7174 4.28138 89.9394 4.28138C91.1338 4.28138 92.0048 3.42234 92.0048 2.23393C91.9907 1.01683 91.0352 0 89.8831 0ZM49.1563 5.38372C47.8357 5.38372 46.6418 5.78483 45.63 6.48607V0.143448H42.8204V11.8554C42.8204 15.4201 45.6723 18.2841 49.1422 18.2841C52.6403 18.2841 55.5062 15.435 55.5062 11.8268C55.4921 8.23283 52.6825 5.38372 49.1563 5.38372ZM34.5459 5.584C31.4129 5.91338 28.8557 8.66262 28.8557 11.9415C28.8557 15.4063 31.7644 18.3128 35.1639 18.3128C38.5493 18.3128 41.4716 15.4063 41.4716 11.9415C41.4716 10.4668 40.9516 9.10621 40.1088 8.03255L33.8715 0.157793H30.2326L34.5459 5.584ZM12.7703 12.6714L10.199 5.84166H8.23333L5.64796 12.6714L3.06313 5.84166H0L4.52346 17.8692H6.49025L9.20183 10.7101L11.9416 17.8687H13.9078L18.4178 5.84166H15.3693L12.7703 12.6714ZM73.1933 8.57655V5.84166H70.3836V17.8406H73.1933V12.7724C73.1933 10.3095 75.7786 8.80607 78.3494 8.80607V5.84221H78.0683C75.8908 5.84221 74.3172 6.64441 73.1933 8.5771V8.57655ZM82.1145 8.57655V5.84166H79.3049V17.8406H82.1145V12.7724C82.1145 10.3095 84.6993 8.80607 87.2701 8.80607V5.84221H86.9895C84.8255 5.84221 83.2525 6.64441 82.1145 8.5771V8.57655ZM24.5993 17.84H27.4083V0.157793H24.5987V17.8406L24.5993 17.84ZM35.178 15.4201C33.2388 15.4201 31.6658 13.8312 31.6658 11.8554C31.6658 9.86538 33.2388 8.27586 35.1639 8.27586C37.1166 8.27586 38.7043 9.86483 38.7043 11.8554C38.7043 13.8312 37.1166 15.4201 35.178 15.4201ZM49.1422 15.4201C48.6805 15.4211 48.2233 15.3291 47.7966 15.1496C47.37 14.97 46.9824 14.7064 46.656 14.3739C46.3297 14.0413 46.0711 13.6464 45.895 13.2117C45.7189 12.7771 45.6289 12.3113 45.63 11.8411C45.63 9.87972 47.1331 8.27586 49.1563 8.27586C51.1794 8.27586 52.6825 9.87972 52.6825 11.8268C52.6825 13.8599 51.0808 15.4201 49.1422 15.4201ZM19.7243 17.84H22.5339V5.84166H19.7243V17.8406V17.84ZM21.1012 0C19.9631 0 19.0076 0.973793 19.0076 2.20524C19.0076 3.45103 20.0054 4.29572 21.1012 4.29572C22.3232 4.29572 23.2505 3.26455 23.2505 2.14786C23.2364 1.01683 22.2668 0 21.1012 0ZM60.0438 10.1517C60.5215 8.96331 61.5052 8.27586 62.966 8.27586C64.4692 8.27586 65.3824 9.00579 65.7616 10.1517H60.0438Z" fill="white"/>
</svg>
