<svg width="64" height="64" viewBox="0 0 64 64" fill="none" xmlns="http://www.w3.org/2000/svg">
<g clip-path="url(#clip0_2098_8656)">
<path fill-rule="evenodd" clip-rule="evenodd" d="M25.8411 0H37.5066L38.4133 8.45888C40.1603 8.96752 41.83 9.67519 43.3891 10.5487L49.9461 5.20802L58.1949 13.5342L52.9095 20.1576C53.7719 21.7388 54.4686 23.4195 54.9772 25.1887L63.3476 26.1064V37.8936L54.9772 38.8113C54.4686 40.5805 53.7719 42.2612 52.9095 43.8424L58.1949 50.4658L49.9461 58.792L43.3891 53.4513C41.8189 54.3248 40.1603 55.0214 38.4133 55.5411L37.5066 64H25.8411L24.9343 55.5411C23.1873 55.0325 21.5176 54.3248 19.9585 53.4513L13.4015 58.792L5.15273 50.4658L10.4382 43.8424C9.57568 42.2723 8.87906 40.5805 8.37042 38.8113L0 37.8936V26.1064L8.37042 25.1887C8.868 23.4195 9.57568 21.7388 10.4382 20.1576L5.15273 13.5342L13.4015 5.20802L19.9585 10.5487C21.5287 9.67519 23.1873 8.97858 24.9343 8.45888L25.8411 0Z" fill="#F27E00"/>
<path fill-rule="evenodd" clip-rule="evenodd" d="M27.7409 16.0201C30.4942 15.3567 33.4133 15.5999 36.1666 16.584L27.6303 25.2088L32.2081 32.6061L39.329 37.0401L47.8653 28.4154C50.5965 36.2772 47.1134 43.8846 39.7934 45.6538C36.6863 46.4057 33.3691 45.9855 30.3062 44.6808L24.3463 48.8936L16.2081 40.678L20.1003 34.4195L19.9897 34.1652C16.6504 25.9828 20.1224 17.8556 27.7188 16.0201H27.7409Z" fill="white"/>
</g>
<defs>
<clipPath id="clip0_2098_8656">
<rect width="64" height="64" fill="white"/>
</clipPath>
</defs>
</svg>
