<svg width="120" height="50" viewBox="0 0 120 50" fill="none" xmlns="http://www.w3.org/2000/svg">
<rect width="120" height="50" fill="url(#paint0_radial_1146_7039)"/>
<path fill-rule="evenodd" clip-rule="evenodd" d="M68.9983 21.6696H72.957L73.2627 24.4856C73.8591 24.6556 74.4257 24.8921 74.955 25.1803L77.1841 23.4065L79.9873 26.1855L78.1981 28.3954C78.4888 28.9202 78.7274 29.4819 78.8988 30.0732L81.7393 30.3762V34.3008L78.8988 34.6038C78.7274 35.1951 78.4888 35.7568 78.1981 36.2816L79.9873 38.4915L77.1841 41.2631L74.955 39.4893C74.4257 39.7775 73.8591 40.014 73.2627 40.184L72.957 43H68.9983L68.6927 40.184C68.0963 40.014 67.5297 39.7775 67.0004 39.4893L64.7713 41.2631L61.9681 38.4841L63.7573 36.2742C63.4666 35.7494 63.228 35.1877 63.0566 34.5965L60.2161 34.2934V30.3688L63.0566 30.0658C63.228 29.4745 63.4666 28.9128 63.7573 28.388L61.9681 26.1781L64.7713 23.3991L67.0004 25.1729C67.5297 24.8847 68.0963 24.6482 68.6927 24.4782L68.9983 21.6622V21.6696Z" fill="#F27E00"/>
<path fill-rule="evenodd" clip-rule="evenodd" d="M8 22.2609C16.2305 15.6681 23.8945 16.2742 30.619 16.2742C41.8913 16.2742 59.575 22.054 59.575 22.054C62.4676 18.7945 66.8289 16.8877 71.5257 17.2794C75.9018 17.6489 79.6444 19.9401 81.9927 23.2439H82.1195C78.623 17.8559 75.4023 12.963 69.3115 7.63415C66.6947 5.43902 63.9437 4.04952 61.23 3C60.1416 3.39911 64.4507 5.2099 66.9631 7.27199C68.9089 8.86844 70.2434 10.6053 70.9889 12.1131C71.2871 12.7265 69.6022 12.6526 68.9163 12.8374C59.068 9.74797 59.4855 16.4516 50.3306 16.8729C41.8167 17.2646 19.4512 10.4058 8.01491 22.2461L8 22.2609Z" fill="#F27E00"/>
<path fill-rule="evenodd" clip-rule="evenodd" d="M69.6469 27.0059C70.5788 26.7842 71.5704 26.8655 72.5097 27.1907L69.6097 30.0658L71.1678 32.527L73.5907 34.0052L76.4908 31.1301C77.4153 33.7539 76.2373 36.2816 73.7473 36.8729C72.6887 37.1242 71.5629 36.9837 70.5267 36.5477L68.5063 37.952L65.7479 35.2173L67.0675 33.133L67.0302 33.0517C65.897 30.3245 67.0749 27.6194 69.6544 27.0059H69.6469Z" fill="white"/>
<path fill-rule="evenodd" clip-rule="evenodd" d="M32.6394 39.9549H26.0863V27.3533C26.0863 26.629 26.4143 26.1042 27.1449 25.7864C27.8681 25.4686 29.0534 25.306 30.6861 25.306H32.6394V39.9623V39.9549ZM23.8348 25.2986H13.1888C11.5561 25.2986 10.3707 25.4612 9.6476 25.779C8.92444 26.0968 8.56659 26.6216 8.57405 27.3459V30.694C8.55168 30.9749 8.66351 31.2927 8.90208 31.6474C9.13319 32.0022 9.69978 32.3274 10.5944 32.6231L15.5446 34.2786C16.074 34.4634 16.484 34.6334 16.7822 34.7886C17.0804 34.9512 17.2519 35.2099 17.2519 35.5721L17.2668 37.0798C17.2668 37.235 17.1699 37.3533 16.9462 37.4346C16.7226 37.5159 16.4765 37.5602 16.2305 37.5602C15.9845 37.5602 15.7459 37.5159 15.5297 37.4346C15.3135 37.3533 15.1868 37.235 15.1868 37.0798V34.8995H13.2037C11.571 34.8995 10.3857 35.0621 9.66251 35.3799C8.93935 35.6977 8.57405 36.2225 8.5815 36.9468L8.61133 39.9401H19.2722C20.9049 39.9401 22.0903 39.7775 22.8135 39.4597C23.5366 39.1419 23.9019 38.6171 23.8945 37.8928L23.8572 34.5817C23.8497 34.1086 23.6634 33.7317 23.313 33.4508C22.9551 33.17 22.3214 32.867 21.4044 32.527C21.4044 32.527 16.1038 30.6053 15.91 30.5314C15.7161 30.4575 15.567 30.3762 15.4626 30.2875C15.3583 30.2062 15.2837 30.1027 15.2464 29.9845C15.2092 29.8662 15.1719 29.7036 15.1719 29.4893L15.1868 28.2402C15.1868 28.0185 15.3434 27.878 15.6043 27.8337C15.8652 27.782 16.0591 27.7598 16.1783 27.7598C16.5213 27.7598 16.7971 27.8115 16.9835 27.915C17.1773 28.0185 17.2593 28.1293 17.2593 28.2402V30.0288H19.2424C20.1818 30.0288 20.9497 29.9771 21.5312 29.881C22.1127 29.7849 22.5749 29.6445 22.9104 29.4597C23.2459 29.2749 23.4844 29.0606 23.6112 28.8093C23.7454 28.558 23.8199 28.2772 23.8274 27.9741V25.2764L23.8348 25.2986Z" fill="white"/>
<path fill-rule="evenodd" clip-rule="evenodd" d="M46.2004 35.4538L43.4643 25.2986H39.4534C37.9624 25.2986 36.8814 25.4612 36.2253 25.779C35.5618 26.0968 35.2562 26.6216 35.2636 27.3459V39.9475H37.0901C38.5812 39.9475 39.6547 39.7849 40.3182 39.4671C40.9818 39.1493 41.2874 38.6245 41.28 37.9002V30.7605H41.4738L44.1055 39.9475H47.9524C47.9971 39.9475 50.8226 31.0783 50.927 30.7605H51.1655V39.9475H52.9995C54.4906 39.9475 55.5641 39.7849 56.2276 39.4671C56.8911 39.1493 57.1968 38.6245 57.1893 37.9002V25.2986H52.5895C51.7545 25.2986 51.0984 25.3503 50.6064 25.4464C50.1218 25.5425 49.7267 25.6829 49.4359 25.8677C49.1452 26.0525 48.9215 26.2668 48.7724 26.5181C48.6233 26.7694 48.4668 27.0429 48.3698 27.3533L46.2078 35.4538H46.2004Z" fill="#F27E00"/>
<path fill-rule="evenodd" clip-rule="evenodd" d="M105.969 36.969C105.969 37.2202 105.827 37.3681 105.559 37.4124C105.29 37.4568 105.111 37.4715 105.029 37.4715C104.798 37.4715 104.589 37.4272 104.388 37.3385C104.194 37.2498 104.06 37.1242 104.06 36.969V28.5728C104.06 28.4324 104.135 28.3141 104.314 28.218C104.5 28.122 104.724 28.0702 104.985 28.0702C105.268 28.0702 105.506 28.122 105.693 28.218C105.879 28.3141 105.969 28.425 105.969 28.5506V36.969ZM98.0587 39.9475H107.81C109.301 39.9475 110.375 39.7849 111.038 39.4671C111.702 39.1493 112.007 38.6245 112 37.9002V25.2986H102.256C100.765 25.2986 99.6839 25.4612 99.0278 25.779C98.3643 26.0968 98.0587 26.6216 98.0661 27.3459V39.9475H98.0587ZM86.9057 39.9475H88.7471C90.2382 39.9475 91.3192 39.7849 91.9752 39.4671C92.6387 39.1493 92.9295 38.6245 92.9295 37.9002V29.1863H93.9732C94.8902 29.1863 95.6283 29.0532 96.18 28.7797C96.6347 28.558 96.8957 28.2402 96.9553 27.8411V27.7967C96.9628 27.7228 96.9628 27.6489 96.9553 27.575V25.269H82.8128V29.1123H82.8203C82.8203 29.1123 82.8203 29.1641 82.8203 29.1863H86.8982V39.9549L86.9057 39.9475Z" fill="#F27E00"/>
<defs>
<radialGradient id="paint0_radial_1146_7039" cx="0" cy="0" r="1" gradientUnits="userSpaceOnUse" gradientTransform="translate(59.598 18.9283) scale(87.678 24.4768)">
<stop stop-color="#192E3E"/>
<stop offset="0.56" stop-color="#162A3B"/>
<stop offset="0.99" stop-color="#0E2133"/>
<stop offset="1" stop-color="#0E2133"/>
</radialGradient>
</defs>
</svg>
