<svg width="600" height="600" viewBox="0 0 600 600" fill="none" xmlns="http://www.w3.org/2000/svg">
<g clip-path="url(#clip0_1137_7020)">
<path d="M600 0H0V600H600V0Z" fill="url(#paint0_radial_1137_7020)"/>
<path fill-rule="evenodd" clip-rule="evenodd" d="M413.907 149.07H445.557L448.017 172.02C452.757 173.4 457.287 175.32 461.517 177.69L479.307 163.2L501.687 185.79L487.347 203.76C489.687 208.05 491.577 212.61 492.957 217.41L515.667 219.9V251.88L492.957 254.37C491.577 259.17 489.687 263.73 487.347 268.02L501.687 285.99L479.307 308.58L461.517 294.09C457.257 296.46 452.757 298.35 448.017 299.76L445.557 322.71H413.907L411.447 299.76C406.707 298.38 402.177 296.46 397.947 294.09L380.157 308.58L357.777 285.99L372.117 268.02C369.777 263.76 367.887 259.17 366.507 254.37L343.797 251.88V219.9L366.507 217.41C367.857 212.61 369.777 208.05 372.117 203.76L357.777 185.79L380.157 163.2L397.947 177.69C402.207 175.32 406.707 173.43 411.447 172.02L413.907 149.07Z" fill="#F27E00"/>
<path fill-rule="evenodd" clip-rule="evenodd" d="M419.063 192.538C426.533 190.738 434.453 191.398 441.923 194.068L418.763 217.468L431.183 237.538L450.503 249.568L473.663 226.168C481.073 247.498 471.623 268.138 451.763 272.938C443.333 274.978 434.333 273.838 426.023 270.298L409.853 281.728L387.773 259.438L398.333 242.458L398.033 241.768C388.973 219.568 398.393 197.518 419.003 192.538H419.063Z" fill="white"/>
<path fill-rule="evenodd" clip-rule="evenodd" d="M309.956 314.248H256.436V314.188H250.436V184.738C250.406 177.298 253.436 171.898 260.036 168.598C266.636 165.298 277.346 163.648 292.226 163.648H309.986V314.248H309.956ZM229.946 163.678H133.106C118.226 163.678 107.516 165.328 100.916 168.628C94.3463 171.928 91.1063 177.298 91.1363 184.768V219.178C90.9263 222.058 91.9463 225.298 94.0763 228.958C96.2063 232.618 101.366 235.948 109.496 238.948L154.496 255.928C159.296 257.788 163.046 259.558 165.746 261.208C168.446 262.858 170.006 265.528 170.036 269.278L170.186 284.788C170.186 286.378 169.316 287.578 167.246 288.448C165.176 289.318 163.016 289.738 160.706 289.738C158.396 289.738 156.296 289.318 154.376 288.448C152.426 287.608 151.256 286.378 151.256 284.788V262.408H133.196C118.316 262.408 107.606 264.058 101.006 267.358C94.4063 270.658 91.1363 276.028 91.1663 283.498L91.4663 314.248H188.366C203.216 314.248 213.956 312.598 220.556 309.298C227.156 305.998 230.426 300.628 230.396 293.188L230.036 259.198C229.976 254.338 228.296 250.438 225.086 247.588C221.846 244.708 216.086 241.588 207.746 238.138C207.746 238.138 159.566 218.398 157.826 217.618C156.056 216.808 154.706 215.998 153.776 215.128C152.846 214.258 152.186 213.238 151.796 212.008C151.436 210.778 151.106 209.098 151.136 206.938L151.286 194.158C151.286 191.848 152.726 190.468 155.066 189.958C157.406 189.478 159.176 189.208 160.316 189.208C163.466 189.208 165.896 189.748 167.666 190.828C169.406 191.908 170.216 193.018 170.216 194.158V212.548H188.276C196.856 212.548 203.786 212.038 209.066 211.048C214.346 210.058 218.516 208.618 221.606 206.758C224.666 204.898 226.796 202.678 227.966 200.098C229.136 197.518 229.856 194.638 229.916 191.488V163.768L229.946 163.678Z" fill="white"/>
<path fill-rule="evenodd" clip-rule="evenodd" d="M475.708 417.961C475.708 419.491 474.868 420.421 473.218 420.661C471.598 420.931 470.518 421.051 470.008 421.051C468.628 421.051 467.338 420.781 466.138 420.211C464.938 419.671 464.158 418.921 464.158 417.961V366.241C464.158 365.371 464.578 364.651 465.718 364.051C466.858 363.451 468.178 363.151 469.738 363.151C471.478 363.151 472.888 363.451 474.028 364.051C475.168 364.651 475.678 365.341 475.678 366.121V417.991L475.708 417.961ZM427.888 436.321H486.808C495.838 436.321 502.318 435.331 506.338 433.351C510.328 431.371 512.188 428.161 512.158 423.661V346.051H453.238C444.208 346.051 437.728 347.041 433.708 349.021C429.718 351.001 427.858 354.211 427.888 358.681V436.291V436.321ZM283.738 417.961C283.738 419.491 282.898 420.421 281.248 420.661C279.628 420.931 278.548 421.051 278.038 421.051C276.658 421.051 275.368 420.781 274.168 420.211C272.968 419.671 272.188 418.921 272.188 417.961V366.241C272.188 365.371 272.608 364.651 273.748 364.051C274.858 363.451 276.238 363.151 277.768 363.151C279.508 363.151 280.948 363.451 282.058 364.051C283.198 364.651 283.708 365.341 283.708 366.121V417.991L283.738 417.961ZM235.918 436.321H294.838C303.838 436.321 310.348 435.331 314.368 433.351C318.358 431.371 320.218 428.161 320.188 423.661V346.051H261.268C252.238 346.051 245.758 347.041 241.738 349.021C237.748 351.001 235.888 354.211 235.918 358.681V436.291V436.321ZM335.818 369.541H335.758V345.871H421.198V360.061H421.228C421.228 360.541 421.228 360.991 421.198 361.411V361.681C420.868 364.141 419.278 366.061 416.548 367.441C413.188 369.121 408.748 369.961 403.198 369.961H396.898V423.661C396.898 428.131 395.128 431.341 391.138 433.351C387.148 435.331 380.638 436.321 371.608 436.321H360.478V369.991H335.818V369.541ZM154.048 408.631L137.488 346.081H113.218C104.188 346.081 97.7075 347.071 93.6875 349.051C89.6975 351.031 87.8375 354.241 87.8675 358.711V436.321H98.9375C107.968 436.321 114.448 435.331 118.468 433.351C122.458 431.371 124.318 428.161 124.288 423.661V379.711H125.458L141.388 436.321H164.638C164.908 436.321 181.978 381.661 182.608 379.711H184.048V436.321H195.118C204.148 436.321 210.628 435.331 214.648 433.351C218.638 431.371 220.498 428.161 220.468 423.691V346.081H192.658C187.648 346.081 183.628 346.381 180.688 346.981C177.748 347.581 175.378 348.451 173.608 349.561C171.838 350.671 170.518 352.021 169.618 353.551C168.718 355.111 167.788 356.791 167.158 358.711L154.078 408.601L154.048 408.631Z" fill="#F27E00"/>
</g>
<defs>
<radialGradient id="paint0_radial_1137_7020" cx="0" cy="0" r="1" gradientUnits="userSpaceOnUse" gradientTransform="translate(297.99 227.14) scale(438.39 293.721)">
<stop stop-color="#192E3E"/>
<stop offset="0.56" stop-color="#162A3B"/>
<stop offset="0.99" stop-color="#0E2133"/>
<stop offset="1" stop-color="#0E2133"/>
</radialGradient>
<clipPath id="clip0_1137_7020">
<rect width="600" height="600" fill="white"/>
</clipPath>
</defs>
</svg>
