<svg width="104" height="21" viewBox="0 0 104 21" fill="none" xmlns="http://www.w3.org/2000/svg">
<g clip-path="url(#clip0_2099_8658)">
<path fill-rule="evenodd" clip-rule="evenodd" d="M60.7608 0.00727586H64.7414L65.0488 2.77866C65.6485 2.94597 66.2182 3.17873 66.7504 3.46242L68.9919 1.71666L71.8105 4.45168L70.0114 6.6266C70.3037 7.14305 70.5436 7.69588 70.716 8.2778L73.5721 8.57603V12.4385L70.716 12.7367C70.5436 13.3187 70.3037 13.8715 70.0114 14.3879L71.8105 16.5629L68.9919 19.2906L66.7504 17.5449C66.2182 17.8285 65.6485 18.0613 65.0488 18.2286L64.7414 21H60.7608L60.4535 18.2286C59.8538 18.0613 59.2841 17.8285 58.7518 17.5449L56.5104 19.2906L53.6918 16.5556L55.4909 14.3807C55.1985 13.8642 54.9587 13.3114 54.7862 12.7295L51.9301 12.4312V8.56876L54.7862 8.27052C54.9587 7.6886 55.1985 7.13578 55.4909 6.61933L53.6918 4.44441L56.5104 1.70939L58.7518 3.45514C59.2841 3.17146 59.8538 2.93869 60.4535 2.77139L60.7608 0V0.00727586Z" fill="#F27E00"/>
<path fill-rule="evenodd" clip-rule="evenodd" d="M61.413 5.25909C62.3501 5.04088 63.3471 5.12089 64.2916 5.44095L61.3755 8.27053L62.9423 10.6928L65.3786 12.1476L68.2947 9.31798C69.2242 11.9002 68.0398 14.3879 65.536 14.9699C64.4715 15.2172 63.3396 15.079 62.2976 14.6498L60.2661 16.0319L57.4924 13.3405L58.8193 11.2892L58.7818 11.2092C57.6424 8.52511 58.8268 5.86284 61.4205 5.25909H61.413Z" fill="white"/>
<path fill-rule="evenodd" clip-rule="evenodd" d="M24.2011 18.0031H17.6118V5.60097C17.6118 4.88812 17.9416 4.37167 18.6763 4.05889C19.4034 3.7461 20.5953 3.58608 22.237 3.58608H24.2011V18.0104V18.0031ZM15.3479 3.5788H4.64306C3.00136 3.5788 1.80944 3.73883 1.08229 4.05161C0.355145 4.36439 -0.00468088 4.88085 0.00281549 5.5937L0.00281549 8.88881C-0.0196736 9.16522 0.0927719 9.478 0.332656 9.82716C0.565043 10.1763 1.13477 10.4964 2.03433 10.7873L7.01192 12.4167C7.54416 12.5985 7.95646 12.7658 8.25631 12.9186C8.55617 13.0786 8.72858 13.3332 8.72858 13.6896L8.74358 15.1735C8.74358 15.3263 8.64612 15.4427 8.42123 15.5227C8.19634 15.6027 7.94896 15.6463 7.70158 15.6463C7.4542 15.6463 7.21432 15.6027 6.99692 15.5227C6.77953 15.4427 6.65209 15.3263 6.65209 15.1735V13.0277H4.65806C3.01635 13.0277 1.82443 13.1877 1.09728 13.5005C0.370137 13.8133 0.00281547 14.3298 0.0103118 15.0426L0.0402973 17.9886H10.7601C12.4018 17.9886 13.5937 17.8285 14.3209 17.5158C15.048 17.203 15.4153 16.6865 15.4078 15.9737L15.3704 12.7149C15.3629 12.2494 15.1755 11.8784 14.8231 11.602C14.4633 11.3256 13.8261 11.0274 12.9041 10.6928C12.9041 10.6928 7.57414 8.80152 7.37924 8.72878C7.18433 8.65605 7.0344 8.57603 6.92946 8.48874C6.82451 8.40873 6.74954 8.30689 6.71206 8.19051C6.67458 8.07412 6.6371 7.9141 6.6371 7.70315L6.65209 6.47385C6.65209 6.25563 6.80951 6.11742 7.07189 6.07378C7.33426 6.02286 7.52917 6.00104 7.64911 6.00104C7.99394 6.00104 8.27131 6.05196 8.45872 6.15379C8.65362 6.25563 8.73608 6.36474 8.73608 6.47385V8.23415H10.7301C11.6747 8.23415 12.4468 8.18323 13.0315 8.08867C13.6162 7.99411 14.081 7.85591 14.4183 7.67406C14.7557 7.49221 14.9955 7.28126 15.123 7.03394C15.2579 6.78663 15.3329 6.51022 15.3404 6.21198V3.55698L15.3479 3.5788Z" fill="white"/>
<path fill-rule="evenodd" clip-rule="evenodd" d="M37.837 13.5733L35.0858 3.5788H31.0528C29.5535 3.5788 28.4665 3.73883 27.8068 4.05161C27.1397 4.36439 26.8323 4.88085 26.8398 5.5937V17.9958H28.6764C30.1757 17.9958 31.2552 17.8358 31.9223 17.523C32.5895 17.2103 32.8969 16.6938 32.8894 15.9809V8.95428H33.0843L35.7305 17.9958H39.5986C39.6436 17.9958 42.4847 9.26706 42.5897 8.95428H42.8295V17.9958H44.6736C46.1729 17.9958 47.2524 17.8358 47.9196 17.523C48.5867 17.2103 48.8941 16.6938 48.8866 15.9809V3.5788H44.2613C43.4218 3.5788 42.7621 3.62972 42.2673 3.72428C41.78 3.81885 41.3827 3.95705 41.0904 4.1389C40.798 4.32075 40.5731 4.53169 40.4232 4.77901C40.2733 5.02633 40.1159 5.29546 40.0184 5.60097L37.8445 13.5733H37.837Z" fill="#F27E00"/>
<path fill-rule="evenodd" clip-rule="evenodd" d="M97.9353 15.0644C97.9353 15.3117 97.7929 15.4572 97.523 15.5009C97.2531 15.5445 97.0732 15.5591 96.9908 15.5591C96.7584 15.5591 96.5485 15.5154 96.3461 15.4281C96.1512 15.3408 96.0163 15.2172 96.0163 15.0644V6.80118C96.0163 6.66297 96.0912 6.54659 96.2711 6.45203C96.4585 6.35746 96.6834 6.30655 96.9458 6.30655C97.2306 6.30655 97.4705 6.35746 97.6579 6.45203C97.8454 6.54659 97.9353 6.6557 97.9353 6.77936V15.0644ZM89.9817 17.9958H99.7869C101.286 17.9958 102.366 17.8358 103.033 17.523C103.7 17.2103 104.007 16.6938 104 15.9809V3.5788H94.2021C92.7029 3.5788 91.6159 3.73883 90.9562 4.05161C90.289 4.36439 89.9817 4.88085 89.9892 5.5937V17.9958H89.9817ZM78.7671 17.9958H80.6187C82.118 17.9958 83.205 17.8358 83.8646 17.523C84.5318 17.2103 84.8242 16.6938 84.8242 15.9809V7.40492H85.8737C86.7957 7.40492 87.5379 7.27399 88.0926 7.00485C88.5499 6.78663 88.8122 6.47385 88.8722 6.08105V6.03741C88.8797 5.96467 88.8797 5.89193 88.8722 5.81919V3.54971H74.6516V7.33218H74.6591C74.6591 7.33218 74.6591 7.38309 74.6591 7.40492H78.7596V18.0031L78.7671 17.9958Z" fill="#F27E00"/>
</g>
<defs>
<clipPath id="clip0_2099_8658">
<rect width="104" height="21" fill="white"/>
</clipPath>
</defs>
</svg>
